<mxfile host="app.diagrams.net" modified="2024-06-29T14:35:09.855Z" agent="Mozilla/5.0 (Windows NT 10.0; Win64; x64) AppleWebKit/537.36 (KHTML, like Gecko) Chrome/126.0.0.0 Safari/537.36" etag="Kt2Dk_moe1SZDjLtjr5B" version="24.6.2" type="device">
  <diagram name="Pagina-1" id="cxO8FnJDTSKHW6fmAGdz">
    <mxGraphModel dx="3187" dy="1840" grid="1" gridSize="10" guides="1" tooltips="1" connect="1" arrows="1" fold="1" page="1" pageScale="1" pageWidth="1600" pageHeight="900" math="0" shadow="0">
      <root>
        <mxCell id="0" />
        <mxCell id="1" parent="0" />
        <mxCell id="YSWuQ-dhdkzdVncypj3w-34" value="" style="endArrow=classic;html=1;rounded=0;entryX=1;entryY=0.933;entryDx=0;entryDy=0;entryPerimeter=0;" parent="1" edge="1" target="1-fifR0d1cTadevSJ9ES-2">
          <mxGeometry width="50" height="50" relative="1" as="geometry">
            <mxPoint x="279" y="459" as="sourcePoint" />
            <mxPoint x="329" y="359" as="targetPoint" />
            <Array as="points">
              <mxPoint x="299" y="459" />
              <mxPoint x="299" y="359" />
            </Array>
          </mxGeometry>
        </mxCell>
        <mxCell id="YSWuQ-dhdkzdVncypj3w-50" value="CONTROLLO BAGAGLI &lt;br&gt;ALL&#39;ENTRATA" style="text;html=1;align=center;verticalAlign=middle;resizable=0;points=[];autosize=1;strokeColor=none;fillColor=none;rounded=0;" parent="1" vertex="1">
          <mxGeometry x="89" y="361" width="150" height="40" as="geometry" />
        </mxCell>
        <mxCell id="YSWuQ-dhdkzdVncypj3w-51" value="CHECK-IN (VOLO TARGET)" style="text;html=1;align=center;verticalAlign=middle;resizable=0;points=[];autosize=1;strokeColor=none;fillColor=none;rounded=0;" parent="1" vertex="1">
          <mxGeometry x="291" y="269" width="180" height="30" as="geometry" />
        </mxCell>
        <mxCell id="YSWuQ-dhdkzdVncypj3w-52" value="" style="endArrow=classic;html=1;rounded=0;" parent="1" edge="1">
          <mxGeometry width="50" height="50" relative="1" as="geometry">
            <mxPoint x="470" y="360" as="sourcePoint" />
            <mxPoint x="510" y="460" as="targetPoint" />
            <Array as="points">
              <mxPoint x="490" y="360" />
              <mxPoint x="490" y="460" />
            </Array>
          </mxGeometry>
        </mxCell>
        <mxCell id="YSWuQ-dhdkzdVncypj3w-93" value="SCAN&lt;br&gt;BOARDING PASS" style="text;html=1;align=center;verticalAlign=middle;resizable=0;points=[];autosize=1;strokeColor=none;fillColor=none;rounded=0;" parent="1" vertex="1">
          <mxGeometry x="540" y="383.5" width="120" height="40" as="geometry" />
        </mxCell>
        <mxCell id="YSWuQ-dhdkzdVncypj3w-94" value="SECURITY CHECKS" style="text;html=1;align=center;verticalAlign=middle;resizable=0;points=[];autosize=1;strokeColor=none;fillColor=none;rounded=0;" parent="1" vertex="1">
          <mxGeometry x="685" y="344" width="140" height="30" as="geometry" />
        </mxCell>
        <mxCell id="YSWuQ-dhdkzdVncypj3w-156" value="CONTROLLO&lt;br&gt;PASSAPORTI" style="text;html=1;align=center;verticalAlign=middle;resizable=0;points=[];autosize=1;strokeColor=none;fillColor=none;rounded=0;" parent="1" vertex="1">
          <mxGeometry x="939" y="319" width="100" height="40" as="geometry" />
        </mxCell>
        <mxCell id="YSWuQ-dhdkzdVncypj3w-158" value="" style="group;rounded=0;" parent="1" vertex="1" connectable="0">
          <mxGeometry x="1100" y="444" width="90" height="30" as="geometry" />
        </mxCell>
        <mxCell id="YSWuQ-dhdkzdVncypj3w-159" value="" style="group;rounded=0;" parent="YSWuQ-dhdkzdVncypj3w-158" vertex="1" connectable="0">
          <mxGeometry y="5" width="50" height="20" as="geometry" />
        </mxCell>
        <mxCell id="YSWuQ-dhdkzdVncypj3w-160" value="" style="endArrow=none;html=1;rounded=0;" parent="YSWuQ-dhdkzdVncypj3w-159" edge="1">
          <mxGeometry width="50" height="50" relative="1" as="geometry">
            <mxPoint as="sourcePoint" />
            <mxPoint x="50" as="targetPoint" />
          </mxGeometry>
        </mxCell>
        <mxCell id="YSWuQ-dhdkzdVncypj3w-161" value="" style="endArrow=none;html=1;rounded=0;" parent="YSWuQ-dhdkzdVncypj3w-159" edge="1">
          <mxGeometry width="50" height="50" relative="1" as="geometry">
            <mxPoint y="20" as="sourcePoint" />
            <mxPoint x="50" y="20" as="targetPoint" />
          </mxGeometry>
        </mxCell>
        <mxCell id="YSWuQ-dhdkzdVncypj3w-162" value="" style="endArrow=none;html=1;rounded=0;" parent="YSWuQ-dhdkzdVncypj3w-159" edge="1">
          <mxGeometry width="50" height="50" relative="1" as="geometry">
            <mxPoint x="50" as="sourcePoint" />
            <mxPoint x="50" y="20" as="targetPoint" />
          </mxGeometry>
        </mxCell>
        <mxCell id="YSWuQ-dhdkzdVncypj3w-163" value="" style="endArrow=none;html=1;rounded=0;" parent="YSWuQ-dhdkzdVncypj3w-159" edge="1">
          <mxGeometry width="50" height="50" relative="1" as="geometry">
            <mxPoint x="40" as="sourcePoint" />
            <mxPoint x="40" y="20" as="targetPoint" />
          </mxGeometry>
        </mxCell>
        <mxCell id="YSWuQ-dhdkzdVncypj3w-164" value="" style="endArrow=none;html=1;rounded=0;" parent="YSWuQ-dhdkzdVncypj3w-159" edge="1">
          <mxGeometry width="50" height="50" relative="1" as="geometry">
            <mxPoint x="30" as="sourcePoint" />
            <mxPoint x="30" y="20" as="targetPoint" />
          </mxGeometry>
        </mxCell>
        <mxCell id="YSWuQ-dhdkzdVncypj3w-165" value="" style="endArrow=none;html=1;rounded=0;" parent="YSWuQ-dhdkzdVncypj3w-159" edge="1">
          <mxGeometry width="50" height="50" relative="1" as="geometry">
            <mxPoint x="20" as="sourcePoint" />
            <mxPoint x="20" y="20" as="targetPoint" />
          </mxGeometry>
        </mxCell>
        <mxCell id="YSWuQ-dhdkzdVncypj3w-166" value="" style="ellipse;whiteSpace=wrap;html=1;aspect=fixed;rounded=0;" parent="YSWuQ-dhdkzdVncypj3w-158" vertex="1">
          <mxGeometry x="60" width="30" height="30" as="geometry" />
        </mxCell>
        <mxCell id="YSWuQ-dhdkzdVncypj3w-167" value="" style="endArrow=classic;html=1;rounded=0;" parent="1" edge="1">
          <mxGeometry width="50" height="50" relative="1" as="geometry">
            <mxPoint x="1060" y="461" as="sourcePoint" />
            <mxPoint x="1099" y="461" as="targetPoint" />
          </mxGeometry>
        </mxCell>
        <mxCell id="YSWuQ-dhdkzdVncypj3w-168" value="CONTROLLO&lt;br&gt;TIMBRI" style="text;html=1;align=center;verticalAlign=middle;resizable=0;points=[];autosize=1;strokeColor=none;fillColor=none;rounded=0;" parent="1" vertex="1">
          <mxGeometry x="1090" y="404" width="100" height="40" as="geometry" />
        </mxCell>
        <mxCell id="YSWuQ-dhdkzdVncypj3w-303" value="BOARDING (VOLO TARGET)" style="text;html=1;align=center;verticalAlign=middle;resizable=0;points=[];autosize=1;strokeColor=none;fillColor=none;rounded=0;" parent="1" vertex="1">
          <mxGeometry x="1290.01" y="386" width="180" height="30" as="geometry" />
        </mxCell>
        <mxCell id="YSWuQ-dhdkzdVncypj3w-305" value="" style="endArrow=classic;html=1;rounded=0;" parent="1" edge="1">
          <mxGeometry width="50" height="50" relative="1" as="geometry">
            <mxPoint x="1194" y="458.5799999999999" as="sourcePoint" />
            <mxPoint x="1340" y="459" as="targetPoint" />
          </mxGeometry>
        </mxCell>
        <mxCell id="YSWuQ-dhdkzdVncypj3w-319" value="" style="endArrow=classic;html=1;rounded=0;" parent="1" edge="1">
          <mxGeometry width="50" height="50" relative="1" as="geometry">
            <mxPoint x="869" y="461" as="sourcePoint" />
            <mxPoint x="1229" y="461" as="targetPoint" />
            <Array as="points">
              <mxPoint x="869" y="631" />
              <mxPoint x="1229" y="631" />
            </Array>
          </mxGeometry>
        </mxCell>
        <mxCell id="YSWuQ-dhdkzdVncypj3w-320" value="cittadinanza &lt;br&gt;marocchina" style="text;html=1;align=center;verticalAlign=middle;resizable=0;points=[];autosize=1;strokeColor=none;fillColor=none;rounded=0;" parent="1" vertex="1">
          <mxGeometry x="1000" y="591" width="90" height="40" as="geometry" />
        </mxCell>
        <mxCell id="hqgwPUTxqUbSW50iuOTj-12" value="" style="group;rounded=0;" parent="1" vertex="1" connectable="0">
          <mxGeometry x="109" y="403" width="130" height="110" as="geometry" />
        </mxCell>
        <mxCell id="YSWuQ-dhdkzdVncypj3w-213" value="" style="group;rounded=0;" parent="hqgwPUTxqUbSW50iuOTj-12" vertex="1" connectable="0">
          <mxGeometry width="130" height="110" as="geometry" />
        </mxCell>
        <mxCell id="YSWuQ-dhdkzdVncypj3w-21" value="" style="group;rounded=0;" parent="YSWuQ-dhdkzdVncypj3w-213" vertex="1" connectable="0">
          <mxGeometry y="80" width="90" height="30" as="geometry" />
        </mxCell>
        <mxCell id="YSWuQ-dhdkzdVncypj3w-9" value="" style="group;rounded=0;" parent="YSWuQ-dhdkzdVncypj3w-21" vertex="1" connectable="0">
          <mxGeometry y="5" width="50" height="20" as="geometry" />
        </mxCell>
        <mxCell id="YSWuQ-dhdkzdVncypj3w-10" value="" style="endArrow=none;html=1;rounded=0;" parent="YSWuQ-dhdkzdVncypj3w-9" edge="1">
          <mxGeometry width="50" height="50" relative="1" as="geometry">
            <mxPoint as="sourcePoint" />
            <mxPoint x="50" as="targetPoint" />
          </mxGeometry>
        </mxCell>
        <mxCell id="YSWuQ-dhdkzdVncypj3w-11" value="" style="endArrow=none;html=1;rounded=0;" parent="YSWuQ-dhdkzdVncypj3w-9" edge="1">
          <mxGeometry width="50" height="50" relative="1" as="geometry">
            <mxPoint y="20" as="sourcePoint" />
            <mxPoint x="50" y="20" as="targetPoint" />
          </mxGeometry>
        </mxCell>
        <mxCell id="YSWuQ-dhdkzdVncypj3w-12" value="" style="endArrow=none;html=1;rounded=0;" parent="YSWuQ-dhdkzdVncypj3w-9" edge="1">
          <mxGeometry width="50" height="50" relative="1" as="geometry">
            <mxPoint x="50" as="sourcePoint" />
            <mxPoint x="50" y="20" as="targetPoint" />
          </mxGeometry>
        </mxCell>
        <mxCell id="YSWuQ-dhdkzdVncypj3w-13" value="" style="endArrow=none;html=1;rounded=0;" parent="YSWuQ-dhdkzdVncypj3w-9" edge="1">
          <mxGeometry width="50" height="50" relative="1" as="geometry">
            <mxPoint x="40" as="sourcePoint" />
            <mxPoint x="40" y="20" as="targetPoint" />
          </mxGeometry>
        </mxCell>
        <mxCell id="YSWuQ-dhdkzdVncypj3w-14" value="" style="endArrow=none;html=1;rounded=0;" parent="YSWuQ-dhdkzdVncypj3w-9" edge="1">
          <mxGeometry width="50" height="50" relative="1" as="geometry">
            <mxPoint x="30" as="sourcePoint" />
            <mxPoint x="30" y="20" as="targetPoint" />
          </mxGeometry>
        </mxCell>
        <mxCell id="YSWuQ-dhdkzdVncypj3w-15" value="" style="endArrow=none;html=1;rounded=0;" parent="YSWuQ-dhdkzdVncypj3w-9" edge="1">
          <mxGeometry width="50" height="50" relative="1" as="geometry">
            <mxPoint x="20" as="sourcePoint" />
            <mxPoint x="20" y="20" as="targetPoint" />
          </mxGeometry>
        </mxCell>
        <mxCell id="YSWuQ-dhdkzdVncypj3w-19" value="" style="ellipse;whiteSpace=wrap;html=1;aspect=fixed;rounded=0;" parent="YSWuQ-dhdkzdVncypj3w-21" vertex="1">
          <mxGeometry x="60" width="30" height="30" as="geometry" />
        </mxCell>
        <mxCell id="YSWuQ-dhdkzdVncypj3w-22" value="" style="group;rounded=0;" parent="YSWuQ-dhdkzdVncypj3w-213" vertex="1" connectable="0">
          <mxGeometry width="90" height="30" as="geometry" />
        </mxCell>
        <mxCell id="YSWuQ-dhdkzdVncypj3w-23" value="" style="group;rounded=0;" parent="YSWuQ-dhdkzdVncypj3w-22" vertex="1" connectable="0">
          <mxGeometry y="5" width="50" height="20" as="geometry" />
        </mxCell>
        <mxCell id="YSWuQ-dhdkzdVncypj3w-24" value="" style="endArrow=none;html=1;rounded=0;" parent="YSWuQ-dhdkzdVncypj3w-23" edge="1">
          <mxGeometry width="50" height="50" relative="1" as="geometry">
            <mxPoint as="sourcePoint" />
            <mxPoint x="50" as="targetPoint" />
          </mxGeometry>
        </mxCell>
        <mxCell id="YSWuQ-dhdkzdVncypj3w-25" value="" style="endArrow=none;html=1;rounded=0;" parent="YSWuQ-dhdkzdVncypj3w-23" edge="1">
          <mxGeometry width="50" height="50" relative="1" as="geometry">
            <mxPoint y="20" as="sourcePoint" />
            <mxPoint x="50" y="20" as="targetPoint" />
          </mxGeometry>
        </mxCell>
        <mxCell id="YSWuQ-dhdkzdVncypj3w-26" value="" style="endArrow=none;html=1;rounded=0;" parent="YSWuQ-dhdkzdVncypj3w-23" edge="1">
          <mxGeometry width="50" height="50" relative="1" as="geometry">
            <mxPoint x="50" as="sourcePoint" />
            <mxPoint x="50" y="20" as="targetPoint" />
          </mxGeometry>
        </mxCell>
        <mxCell id="YSWuQ-dhdkzdVncypj3w-27" value="" style="endArrow=none;html=1;rounded=0;" parent="YSWuQ-dhdkzdVncypj3w-23" edge="1">
          <mxGeometry width="50" height="50" relative="1" as="geometry">
            <mxPoint x="40" as="sourcePoint" />
            <mxPoint x="40" y="20" as="targetPoint" />
          </mxGeometry>
        </mxCell>
        <mxCell id="YSWuQ-dhdkzdVncypj3w-28" value="" style="endArrow=none;html=1;rounded=0;" parent="YSWuQ-dhdkzdVncypj3w-23" edge="1">
          <mxGeometry width="50" height="50" relative="1" as="geometry">
            <mxPoint x="30" as="sourcePoint" />
            <mxPoint x="30" y="20" as="targetPoint" />
          </mxGeometry>
        </mxCell>
        <mxCell id="YSWuQ-dhdkzdVncypj3w-29" value="" style="endArrow=none;html=1;rounded=0;" parent="YSWuQ-dhdkzdVncypj3w-23" edge="1">
          <mxGeometry width="50" height="50" relative="1" as="geometry">
            <mxPoint x="20" as="sourcePoint" />
            <mxPoint x="20" y="20" as="targetPoint" />
          </mxGeometry>
        </mxCell>
        <mxCell id="YSWuQ-dhdkzdVncypj3w-30" value="" style="ellipse;whiteSpace=wrap;html=1;aspect=fixed;rounded=0;" parent="YSWuQ-dhdkzdVncypj3w-22" vertex="1">
          <mxGeometry x="60" width="30" height="30" as="geometry" />
        </mxCell>
        <mxCell id="YSWuQ-dhdkzdVncypj3w-31" value="" style="endArrow=none;html=1;rounded=0;" parent="YSWuQ-dhdkzdVncypj3w-213" edge="1">
          <mxGeometry width="50" height="50" relative="1" as="geometry">
            <mxPoint x="90" y="15" as="sourcePoint" />
            <mxPoint x="130" y="15" as="targetPoint" />
          </mxGeometry>
        </mxCell>
        <mxCell id="YSWuQ-dhdkzdVncypj3w-32" value="" style="endArrow=none;html=1;rounded=0;" parent="YSWuQ-dhdkzdVncypj3w-213" edge="1">
          <mxGeometry width="50" height="50" relative="1" as="geometry">
            <mxPoint x="90" y="95" as="sourcePoint" />
            <mxPoint x="130" y="95" as="targetPoint" />
          </mxGeometry>
        </mxCell>
        <mxCell id="YSWuQ-dhdkzdVncypj3w-33" value="" style="endArrow=none;html=1;rounded=0;" parent="YSWuQ-dhdkzdVncypj3w-213" edge="1">
          <mxGeometry width="50" height="50" relative="1" as="geometry">
            <mxPoint x="130" y="15" as="sourcePoint" />
            <mxPoint x="130" y="95" as="targetPoint" />
          </mxGeometry>
        </mxCell>
        <mxCell id="hqgwPUTxqUbSW50iuOTj-3" value="" style="group;rounded=0;" parent="hqgwPUTxqUbSW50iuOTj-12" vertex="1" connectable="0">
          <mxGeometry y="41" width="90" height="30" as="geometry" />
        </mxCell>
        <mxCell id="hqgwPUTxqUbSW50iuOTj-4" value="" style="group;rounded=0;" parent="hqgwPUTxqUbSW50iuOTj-3" vertex="1" connectable="0">
          <mxGeometry y="5" width="50" height="20" as="geometry" />
        </mxCell>
        <mxCell id="hqgwPUTxqUbSW50iuOTj-5" value="" style="endArrow=none;html=1;rounded=0;" parent="hqgwPUTxqUbSW50iuOTj-4" edge="1">
          <mxGeometry width="50" height="50" relative="1" as="geometry">
            <mxPoint as="sourcePoint" />
            <mxPoint x="50" as="targetPoint" />
          </mxGeometry>
        </mxCell>
        <mxCell id="hqgwPUTxqUbSW50iuOTj-6" value="" style="endArrow=none;html=1;rounded=0;" parent="hqgwPUTxqUbSW50iuOTj-4" edge="1">
          <mxGeometry width="50" height="50" relative="1" as="geometry">
            <mxPoint y="20" as="sourcePoint" />
            <mxPoint x="50" y="20" as="targetPoint" />
          </mxGeometry>
        </mxCell>
        <mxCell id="hqgwPUTxqUbSW50iuOTj-7" value="" style="endArrow=none;html=1;rounded=0;" parent="hqgwPUTxqUbSW50iuOTj-4" edge="1">
          <mxGeometry width="50" height="50" relative="1" as="geometry">
            <mxPoint x="50" as="sourcePoint" />
            <mxPoint x="50" y="20" as="targetPoint" />
          </mxGeometry>
        </mxCell>
        <mxCell id="hqgwPUTxqUbSW50iuOTj-8" value="" style="endArrow=none;html=1;rounded=0;" parent="hqgwPUTxqUbSW50iuOTj-4" edge="1">
          <mxGeometry width="50" height="50" relative="1" as="geometry">
            <mxPoint x="40" as="sourcePoint" />
            <mxPoint x="40" y="20" as="targetPoint" />
          </mxGeometry>
        </mxCell>
        <mxCell id="hqgwPUTxqUbSW50iuOTj-9" value="" style="endArrow=none;html=1;rounded=0;" parent="hqgwPUTxqUbSW50iuOTj-4" edge="1">
          <mxGeometry width="50" height="50" relative="1" as="geometry">
            <mxPoint x="30" as="sourcePoint" />
            <mxPoint x="30" y="20" as="targetPoint" />
          </mxGeometry>
        </mxCell>
        <mxCell id="hqgwPUTxqUbSW50iuOTj-10" value="" style="endArrow=none;html=1;rounded=0;" parent="hqgwPUTxqUbSW50iuOTj-4" edge="1">
          <mxGeometry width="50" height="50" relative="1" as="geometry">
            <mxPoint x="20" as="sourcePoint" />
            <mxPoint x="20" y="20" as="targetPoint" />
          </mxGeometry>
        </mxCell>
        <mxCell id="hqgwPUTxqUbSW50iuOTj-11" value="" style="ellipse;whiteSpace=wrap;html=1;aspect=fixed;rounded=0;" parent="hqgwPUTxqUbSW50iuOTj-3" vertex="1">
          <mxGeometry x="60" width="30" height="30" as="geometry" />
        </mxCell>
        <mxCell id="hqgwPUTxqUbSW50iuOTj-13" value="" style="endArrow=none;html=1;rounded=0;exitX=1;exitY=0.5;exitDx=0;exitDy=0;" parent="1" source="hqgwPUTxqUbSW50iuOTj-11" edge="1">
          <mxGeometry width="50" height="50" relative="1" as="geometry">
            <mxPoint x="509" y="679" as="sourcePoint" />
            <mxPoint x="239" y="459" as="targetPoint" />
          </mxGeometry>
        </mxCell>
        <mxCell id="hqgwPUTxqUbSW50iuOTj-58" value="" style="group;rounded=0;" parent="1" vertex="1" connectable="0">
          <mxGeometry x="320" y="324.75" width="150" height="68.5" as="geometry" />
        </mxCell>
        <mxCell id="YSWuQ-dhdkzdVncypj3w-36" value="" style="group;rounded=0;" parent="hqgwPUTxqUbSW50iuOTj-58" vertex="1" connectable="0">
          <mxGeometry y="19.25" width="50" height="30" as="geometry" />
        </mxCell>
        <mxCell id="YSWuQ-dhdkzdVncypj3w-37" value="" style="endArrow=none;html=1;rounded=0;" parent="YSWuQ-dhdkzdVncypj3w-36" edge="1">
          <mxGeometry width="50" height="50" relative="1" as="geometry">
            <mxPoint as="sourcePoint" />
            <mxPoint x="50" as="targetPoint" />
          </mxGeometry>
        </mxCell>
        <mxCell id="YSWuQ-dhdkzdVncypj3w-38" value="" style="endArrow=none;html=1;rounded=0;" parent="YSWuQ-dhdkzdVncypj3w-36" edge="1">
          <mxGeometry width="50" height="50" relative="1" as="geometry">
            <mxPoint y="30" as="sourcePoint" />
            <mxPoint x="50" y="30" as="targetPoint" />
          </mxGeometry>
        </mxCell>
        <mxCell id="YSWuQ-dhdkzdVncypj3w-39" value="" style="endArrow=none;html=1;rounded=0;" parent="YSWuQ-dhdkzdVncypj3w-36" edge="1">
          <mxGeometry width="50" height="50" relative="1" as="geometry">
            <mxPoint x="50" as="sourcePoint" />
            <mxPoint x="50" y="30" as="targetPoint" />
          </mxGeometry>
        </mxCell>
        <mxCell id="YSWuQ-dhdkzdVncypj3w-40" value="" style="endArrow=none;html=1;rounded=0;" parent="YSWuQ-dhdkzdVncypj3w-36" edge="1">
          <mxGeometry width="50" height="50" relative="1" as="geometry">
            <mxPoint x="40" as="sourcePoint" />
            <mxPoint x="40" y="30" as="targetPoint" />
          </mxGeometry>
        </mxCell>
        <mxCell id="YSWuQ-dhdkzdVncypj3w-41" value="" style="endArrow=none;html=1;rounded=0;" parent="YSWuQ-dhdkzdVncypj3w-36" edge="1">
          <mxGeometry width="50" height="50" relative="1" as="geometry">
            <mxPoint x="30" as="sourcePoint" />
            <mxPoint x="30" y="30" as="targetPoint" />
          </mxGeometry>
        </mxCell>
        <mxCell id="YSWuQ-dhdkzdVncypj3w-42" value="" style="endArrow=none;html=1;rounded=0;" parent="YSWuQ-dhdkzdVncypj3w-36" edge="1">
          <mxGeometry width="50" height="50" relative="1" as="geometry">
            <mxPoint x="20" as="sourcePoint" />
            <mxPoint x="20" y="30" as="targetPoint" />
          </mxGeometry>
        </mxCell>
        <mxCell id="YSWuQ-dhdkzdVncypj3w-46" value="" style="ellipse;whiteSpace=wrap;html=1;aspect=fixed;rounded=0;" parent="hqgwPUTxqUbSW50iuOTj-58" vertex="1">
          <mxGeometry x="90" width="19" height="19" as="geometry" />
        </mxCell>
        <mxCell id="YSWuQ-dhdkzdVncypj3w-48" value="" style="endArrow=none;html=1;rounded=0;entryX=0;entryY=0.5;entryDx=0;entryDy=0;" parent="hqgwPUTxqUbSW50iuOTj-58" target="YSWuQ-dhdkzdVncypj3w-46" edge="1">
          <mxGeometry width="50" height="50" relative="1" as="geometry">
            <mxPoint x="50" y="35.25" as="sourcePoint" />
            <mxPoint x="234.5" y="-2.75" as="targetPoint" />
          </mxGeometry>
        </mxCell>
        <mxCell id="YSWuQ-dhdkzdVncypj3w-49" value="" style="endArrow=none;html=1;rounded=0;entryX=0;entryY=0.5;entryDx=0;entryDy=0;" parent="hqgwPUTxqUbSW50iuOTj-58" target="hqgwPUTxqUbSW50iuOTj-43" edge="1">
          <mxGeometry width="50" height="50" relative="1" as="geometry">
            <mxPoint x="50" y="34.25" as="sourcePoint" />
            <mxPoint x="235.8933982822016" y="93.64339828220147" as="targetPoint" />
          </mxGeometry>
        </mxCell>
        <mxCell id="YSWuQ-dhdkzdVncypj3w-237" value="" style="endArrow=none;html=1;rounded=0;entryX=1;entryY=0.5;entryDx=0;entryDy=0;" parent="hqgwPUTxqUbSW50iuOTj-58" target="YSWuQ-dhdkzdVncypj3w-46" edge="1">
          <mxGeometry width="50" height="50" relative="1" as="geometry">
            <mxPoint x="150" y="35.25" as="sourcePoint" />
            <mxPoint x="260.5" y="2.25" as="targetPoint" />
          </mxGeometry>
        </mxCell>
        <mxCell id="hqgwPUTxqUbSW50iuOTj-43" value="" style="ellipse;whiteSpace=wrap;html=1;aspect=fixed;rounded=0;" parent="hqgwPUTxqUbSW50iuOTj-58" vertex="1">
          <mxGeometry x="90" y="24.5" width="19" height="19" as="geometry" />
        </mxCell>
        <mxCell id="hqgwPUTxqUbSW50iuOTj-45" value="" style="ellipse;whiteSpace=wrap;html=1;aspect=fixed;rounded=0;" parent="hqgwPUTxqUbSW50iuOTj-58" vertex="1">
          <mxGeometry x="90" y="49.5" width="19" height="19" as="geometry" />
        </mxCell>
        <mxCell id="hqgwPUTxqUbSW50iuOTj-55" value="" style="endArrow=none;html=1;rounded=0;entryX=0;entryY=0.5;entryDx=0;entryDy=0;" parent="hqgwPUTxqUbSW50iuOTj-58" target="hqgwPUTxqUbSW50iuOTj-45" edge="1">
          <mxGeometry width="50" height="50" relative="1" as="geometry">
            <mxPoint x="50" y="35.25" as="sourcePoint" />
            <mxPoint x="250" y="15.25" as="targetPoint" />
          </mxGeometry>
        </mxCell>
        <mxCell id="hqgwPUTxqUbSW50iuOTj-56" value="" style="endArrow=none;html=1;rounded=0;exitX=1;exitY=0.5;exitDx=0;exitDy=0;" parent="hqgwPUTxqUbSW50iuOTj-58" source="hqgwPUTxqUbSW50iuOTj-45" edge="1">
          <mxGeometry width="50" height="50" relative="1" as="geometry">
            <mxPoint x="200" y="65.25" as="sourcePoint" />
            <mxPoint x="150" y="35.25" as="targetPoint" />
          </mxGeometry>
        </mxCell>
        <mxCell id="hqgwPUTxqUbSW50iuOTj-57" value="" style="endArrow=none;html=1;rounded=0;" parent="hqgwPUTxqUbSW50iuOTj-58" edge="1">
          <mxGeometry width="50" height="50" relative="1" as="geometry">
            <mxPoint x="110" y="35.25" as="sourcePoint" />
            <mxPoint x="150" y="35.25" as="targetPoint" />
          </mxGeometry>
        </mxCell>
        <mxCell id="hqgwPUTxqUbSW50iuOTj-59" value="" style="endArrow=classic;html=1;rounded=0;" parent="1" edge="1">
          <mxGeometry width="50" height="50" relative="1" as="geometry">
            <mxPoint x="650" y="459" as="sourcePoint" />
            <mxPoint x="690" y="459" as="targetPoint" />
          </mxGeometry>
        </mxCell>
        <mxCell id="hqgwPUTxqUbSW50iuOTj-120" value="" style="group;rounded=0;" parent="1" vertex="1" connectable="0">
          <mxGeometry x="1340" y="422" width="110" height="76.5" as="geometry" />
        </mxCell>
        <mxCell id="hqgwPUTxqUbSW50iuOTj-79" value="" style="group;rounded=0;" parent="hqgwPUTxqUbSW50iuOTj-120" vertex="1" connectable="0">
          <mxGeometry width="50.579598145285985" height="29.805194805194805" as="geometry" />
        </mxCell>
        <mxCell id="hqgwPUTxqUbSW50iuOTj-80" value="" style="endArrow=none;html=1;rounded=0;" parent="hqgwPUTxqUbSW50iuOTj-79" edge="1">
          <mxGeometry width="50" height="50" relative="1" as="geometry">
            <mxPoint as="sourcePoint" />
            <mxPoint x="50.579598145285985" as="targetPoint" />
          </mxGeometry>
        </mxCell>
        <mxCell id="hqgwPUTxqUbSW50iuOTj-81" value="" style="endArrow=none;html=1;rounded=0;" parent="hqgwPUTxqUbSW50iuOTj-79" edge="1">
          <mxGeometry width="50" height="50" relative="1" as="geometry">
            <mxPoint y="29.805194805194805" as="sourcePoint" />
            <mxPoint x="50.579598145285985" y="29.805194805194805" as="targetPoint" />
          </mxGeometry>
        </mxCell>
        <mxCell id="hqgwPUTxqUbSW50iuOTj-82" value="" style="endArrow=none;html=1;rounded=0;" parent="hqgwPUTxqUbSW50iuOTj-79" edge="1">
          <mxGeometry width="50" height="50" relative="1" as="geometry">
            <mxPoint x="50.579598145285985" as="sourcePoint" />
            <mxPoint x="50.579598145285985" y="29.805194805194805" as="targetPoint" />
          </mxGeometry>
        </mxCell>
        <mxCell id="hqgwPUTxqUbSW50iuOTj-83" value="" style="endArrow=none;html=1;rounded=0;" parent="hqgwPUTxqUbSW50iuOTj-79" edge="1">
          <mxGeometry width="50" height="50" relative="1" as="geometry">
            <mxPoint x="40.46367851622879" as="sourcePoint" />
            <mxPoint x="40.46367851622879" y="29.805194805194805" as="targetPoint" />
          </mxGeometry>
        </mxCell>
        <mxCell id="hqgwPUTxqUbSW50iuOTj-84" value="" style="endArrow=none;html=1;rounded=0;" parent="hqgwPUTxqUbSW50iuOTj-79" edge="1">
          <mxGeometry width="50" height="50" relative="1" as="geometry">
            <mxPoint x="30.34775888717159" as="sourcePoint" />
            <mxPoint x="30.34775888717159" y="29.805194805194805" as="targetPoint" />
          </mxGeometry>
        </mxCell>
        <mxCell id="hqgwPUTxqUbSW50iuOTj-85" value="" style="endArrow=none;html=1;rounded=0;" parent="hqgwPUTxqUbSW50iuOTj-79" edge="1">
          <mxGeometry width="50" height="50" relative="1" as="geometry">
            <mxPoint x="20.231839258114395" as="sourcePoint" />
            <mxPoint x="20.231839258114395" y="29.805194805194805" as="targetPoint" />
          </mxGeometry>
        </mxCell>
        <mxCell id="hqgwPUTxqUbSW50iuOTj-86" value="" style="ellipse;whiteSpace=wrap;html=1;aspect=fixed;rounded=0;" parent="hqgwPUTxqUbSW50iuOTj-120" vertex="1">
          <mxGeometry x="80.92735703245751" y="24.863636363636385" width="29.07264296754254" height="29.07264296754254" as="geometry" />
        </mxCell>
        <mxCell id="hqgwPUTxqUbSW50iuOTj-87" value="" style="group;rounded=0;" parent="hqgwPUTxqUbSW50iuOTj-120" vertex="1" connectable="0">
          <mxGeometry y="46.69480519480523" width="50.579598145285985" height="29.805194805194805" as="geometry" />
        </mxCell>
        <mxCell id="hqgwPUTxqUbSW50iuOTj-88" value="" style="endArrow=none;html=1;rounded=0;" parent="hqgwPUTxqUbSW50iuOTj-87" edge="1">
          <mxGeometry width="50" height="50" relative="1" as="geometry">
            <mxPoint as="sourcePoint" />
            <mxPoint x="50.579598145285985" as="targetPoint" />
          </mxGeometry>
        </mxCell>
        <mxCell id="hqgwPUTxqUbSW50iuOTj-89" value="" style="endArrow=none;html=1;rounded=0;" parent="hqgwPUTxqUbSW50iuOTj-87" edge="1">
          <mxGeometry width="50" height="50" relative="1" as="geometry">
            <mxPoint y="29.805194805194805" as="sourcePoint" />
            <mxPoint x="50.579598145285985" y="29.805194805194805" as="targetPoint" />
          </mxGeometry>
        </mxCell>
        <mxCell id="hqgwPUTxqUbSW50iuOTj-90" value="" style="endArrow=none;html=1;rounded=0;" parent="hqgwPUTxqUbSW50iuOTj-87" edge="1">
          <mxGeometry width="50" height="50" relative="1" as="geometry">
            <mxPoint x="50.579598145285985" as="sourcePoint" />
            <mxPoint x="50.579598145285985" y="29.805194805194805" as="targetPoint" />
          </mxGeometry>
        </mxCell>
        <mxCell id="hqgwPUTxqUbSW50iuOTj-91" value="" style="endArrow=none;html=1;rounded=0;" parent="hqgwPUTxqUbSW50iuOTj-87" edge="1">
          <mxGeometry width="50" height="50" relative="1" as="geometry">
            <mxPoint x="40.46367851622879" as="sourcePoint" />
            <mxPoint x="40.46367851622879" y="29.805194805194805" as="targetPoint" />
          </mxGeometry>
        </mxCell>
        <mxCell id="hqgwPUTxqUbSW50iuOTj-92" value="" style="endArrow=none;html=1;rounded=0;" parent="hqgwPUTxqUbSW50iuOTj-87" edge="1">
          <mxGeometry width="50" height="50" relative="1" as="geometry">
            <mxPoint x="30.34775888717159" as="sourcePoint" />
            <mxPoint x="30.34775888717159" y="29.805194805194805" as="targetPoint" />
          </mxGeometry>
        </mxCell>
        <mxCell id="hqgwPUTxqUbSW50iuOTj-93" value="" style="endArrow=none;html=1;rounded=0;" parent="hqgwPUTxqUbSW50iuOTj-87" edge="1">
          <mxGeometry width="50" height="50" relative="1" as="geometry">
            <mxPoint x="20.231839258114395" as="sourcePoint" />
            <mxPoint x="20.231839258114395" y="29.805194805194805" as="targetPoint" />
          </mxGeometry>
        </mxCell>
        <mxCell id="hqgwPUTxqUbSW50iuOTj-94" value="" style="endArrow=none;html=1;rounded=0;entryX=0;entryY=0;entryDx=0;entryDy=0;" parent="hqgwPUTxqUbSW50iuOTj-120" target="hqgwPUTxqUbSW50iuOTj-86" edge="1">
          <mxGeometry width="50" height="50" relative="1" as="geometry">
            <mxPoint x="50.57959814528598" y="16.889610389610382" as="sourcePoint" />
            <mxPoint x="121.3910355486864" y="-38.74675324675323" as="targetPoint" />
          </mxGeometry>
        </mxCell>
        <mxCell id="hqgwPUTxqUbSW50iuOTj-95" value="" style="endArrow=none;html=1;rounded=0;entryX=0;entryY=1;entryDx=0;entryDy=0;" parent="hqgwPUTxqUbSW50iuOTj-120" target="hqgwPUTxqUbSW50iuOTj-86" edge="1">
          <mxGeometry width="50" height="50" relative="1" as="geometry">
            <mxPoint x="50.57959814528598" y="66.56493506493507" as="sourcePoint" />
            <mxPoint x="95.08964451313764" y="34.77272727272731" as="targetPoint" />
          </mxGeometry>
        </mxCell>
        <mxCell id="hqgwPUTxqUbSW50iuOTj-96" value="" style="ellipse;whiteSpace=wrap;html=1;aspect=fixed;rounded=0;" parent="hqgwPUTxqUbSW50iuOTj-120" vertex="1">
          <mxGeometry x="92.97449768160745" y="31.51248751248747" width="6.0868343403119365" height="6.0868343403119365" as="geometry" />
        </mxCell>
        <mxCell id="hqgwPUTxqUbSW50iuOTj-97" value="" style="ellipse;whiteSpace=wrap;html=1;aspect=fixed;rounded=0;" parent="hqgwPUTxqUbSW50iuOTj-120" vertex="1">
          <mxGeometry x="92.97449768160745" y="42.441058941058934" width="6.0868343403119365" height="6.0868343403119365" as="geometry" />
        </mxCell>
        <mxCell id="hqgwPUTxqUbSW50iuOTj-133" value="CHECK-IN (ALTRI)" style="text;html=1;align=center;verticalAlign=middle;resizable=0;points=[];autosize=1;strokeColor=none;fillColor=none;rounded=0;" parent="1" vertex="1">
          <mxGeometry x="320" y="474" width="130" height="30" as="geometry" />
        </mxCell>
        <mxCell id="hqgwPUTxqUbSW50iuOTj-134" value="" style="endArrow=classic;html=1;rounded=0;curved=0;" parent="1" edge="1">
          <mxGeometry width="50" height="50" relative="1" as="geometry">
            <mxPoint x="240" y="459" as="sourcePoint" />
            <mxPoint x="329" y="569" as="targetPoint" />
            <Array as="points">
              <mxPoint x="299" y="459" />
              <mxPoint x="299" y="569" />
            </Array>
          </mxGeometry>
        </mxCell>
        <mxCell id="hqgwPUTxqUbSW50iuOTj-136" value="" style="endArrow=classic;html=1;rounded=0;" parent="1" edge="1">
          <mxGeometry width="50" height="50" relative="1" as="geometry">
            <mxPoint x="440" y="570" as="sourcePoint" />
            <mxPoint x="510" y="460" as="targetPoint" />
            <Array as="points">
              <mxPoint x="490" y="570" />
              <mxPoint x="490" y="460" />
            </Array>
          </mxGeometry>
        </mxCell>
        <mxCell id="hqgwPUTxqUbSW50iuOTj-147" value="" style="endArrow=classic;html=1;rounded=0;" parent="1" edge="1">
          <mxGeometry width="50" height="50" relative="1" as="geometry">
            <mxPoint x="830" y="459" as="sourcePoint" />
            <mxPoint x="910" y="459" as="targetPoint" />
          </mxGeometry>
        </mxCell>
        <mxCell id="1-fifR0d1cTadevSJ9ES-1" value="" style="endArrow=classic;html=1;rounded=0;" parent="1" edge="1">
          <mxGeometry width="50" height="50" relative="1" as="geometry">
            <mxPoint x="1280" y="461" as="sourcePoint" />
            <mxPoint x="1340" y="631" as="targetPoint" />
            <Array as="points">
              <mxPoint x="1280" y="631" />
            </Array>
          </mxGeometry>
        </mxCell>
        <mxCell id="1-fifR0d1cTadevSJ9ES-2" value="&lt;font style=&quot;&quot;&gt;&lt;span style=&quot;font-size: 14px;&quot;&gt;P&lt;/span&gt;&lt;font style=&quot;font-size: 10px;&quot;&gt;target&lt;/font&gt;&lt;/font&gt;" style="text;html=1;align=center;verticalAlign=middle;resizable=0;points=[];autosize=1;strokeColor=none;fillColor=none;" parent="1" vertex="1">
          <mxGeometry x="260" y="331" width="60" height="30" as="geometry" />
        </mxCell>
        <mxCell id="1-fifR0d1cTadevSJ9ES-8" value="&lt;font style=&quot;&quot;&gt;&lt;span style=&quot;font-size: 14px;&quot;&gt;P&lt;/span&gt;&lt;font style=&quot;font-size: 10px;&quot;&gt;others&lt;/font&gt;&lt;/font&gt;" style="text;html=1;align=center;verticalAlign=middle;resizable=0;points=[];autosize=1;strokeColor=none;fillColor=none;" parent="1" vertex="1">
          <mxGeometry x="258" y="561" width="60" height="30" as="geometry" />
        </mxCell>
        <mxCell id="1-fifR0d1cTadevSJ9ES-10" value="&lt;font style=&quot;&quot;&gt;&lt;span style=&quot;font-size: 14px;&quot;&gt;P&lt;/span&gt;&lt;font style=&quot;font-size: 10px;&quot;&gt;target&lt;/font&gt;&lt;/font&gt;" style="text;html=1;align=center;verticalAlign=middle;resizable=0;points=[];autosize=1;strokeColor=none;fillColor=none;" parent="1" vertex="1">
          <mxGeometry x="1270" y="435" width="60" height="30" as="geometry" />
        </mxCell>
        <mxCell id="1-fifR0d1cTadevSJ9ES-11" value="&lt;font style=&quot;&quot;&gt;&lt;span style=&quot;font-size: 14px;&quot;&gt;P&lt;/span&gt;&lt;font style=&quot;font-size: 10px;&quot;&gt;others&lt;/font&gt;&lt;/font&gt;" style="text;html=1;align=center;verticalAlign=middle;resizable=0;points=[];autosize=1;strokeColor=none;fillColor=none;" parent="1" vertex="1">
          <mxGeometry x="1270" y="540" width="60" height="30" as="geometry" />
        </mxCell>
        <mxCell id="1-fifR0d1cTadevSJ9ES-13" value="&lt;font style=&quot;&quot;&gt;&lt;span style=&quot;font-size: 14px;&quot;&gt;P&lt;/span&gt;&lt;span style=&quot;font-size: 10px;&quot;&gt;int&lt;/span&gt;&lt;/font&gt;" style="text;html=1;align=center;verticalAlign=middle;resizable=0;points=[];autosize=1;strokeColor=none;fillColor=none;" parent="1" vertex="1">
          <mxGeometry x="881" y="428" width="40" height="30" as="geometry" />
        </mxCell>
        <mxCell id="1-fifR0d1cTadevSJ9ES-14" value="&lt;font style=&quot;&quot;&gt;&lt;span style=&quot;font-size: 14px;&quot;&gt;P&lt;/span&gt;&lt;span style=&quot;font-size: 10px;&quot;&gt;citizen&lt;/span&gt;&lt;/font&gt;" style="text;html=1;align=center;verticalAlign=middle;resizable=0;points=[];autosize=1;strokeColor=none;fillColor=none;" parent="1" vertex="1">
          <mxGeometry x="861" y="540" width="60" height="30" as="geometry" />
        </mxCell>
        <mxCell id="1-fifR0d1cTadevSJ9ES-15" value="" style="endArrow=classic;html=1;rounded=0;" parent="1" edge="1">
          <mxGeometry width="50" height="50" relative="1" as="geometry">
            <mxPoint x="39" y="458.5" as="sourcePoint" />
            <mxPoint x="109" y="459.5" as="targetPoint" />
          </mxGeometry>
        </mxCell>
        <mxCell id="1-fifR0d1cTadevSJ9ES-17" value="&lt;div style=&quot;text-align: left;&quot;&gt;&lt;span data-darkreader-inline-bgcolor=&quot;&quot; style=&quot;background-color: initial; text-wrap: wrap; --darkreader-inline-bgcolor: initial;&quot;&gt;&lt;font style=&quot;--darkreader-inline-color: #bdb7ae;&quot; data-darkreader-inline-color=&quot;&quot; face=&quot;arial, sans-serif&quot; color=&quot;#c1bcb4&quot;&gt;&lt;span style=&quot;font-size: 24px;&quot;&gt;λ&lt;/span&gt;&lt;font style=&quot;font-size: 11px;&quot;&gt;1&lt;/font&gt;&lt;/font&gt;&lt;/span&gt;&lt;/div&gt;" style="text;html=1;align=center;verticalAlign=middle;resizable=0;points=[];autosize=1;strokeColor=none;fillColor=none;" parent="1" vertex="1">
          <mxGeometry x="251" y="428" width="40" height="40" as="geometry" />
        </mxCell>
        <mxCell id="1-fifR0d1cTadevSJ9ES-26" value="" style="endArrow=classic;html=1;rounded=0;" parent="1" edge="1">
          <mxGeometry width="50" height="50" relative="1" as="geometry">
            <mxPoint x="1450" y="462" as="sourcePoint" />
            <mxPoint x="1500" y="462" as="targetPoint" />
          </mxGeometry>
        </mxCell>
        <mxCell id="1-fifR0d1cTadevSJ9ES-27" value="&lt;div style=&quot;text-align: left;&quot;&gt;&lt;span data-darkreader-inline-bgcolor=&quot;&quot; style=&quot;background-color: initial; text-wrap: wrap; --darkreader-inline-bgcolor: initial;&quot;&gt;&lt;font style=&quot;--darkreader-inline-color: #bdb7ae;&quot; data-darkreader-inline-color=&quot;&quot; face=&quot;arial, sans-serif&quot; color=&quot;#c1bcb4&quot;&gt;&lt;span style=&quot;font-size: 24px;&quot;&gt;λ&lt;/span&gt;&lt;/font&gt;&lt;/span&gt;&lt;/div&gt;" style="text;html=1;align=center;verticalAlign=middle;resizable=0;points=[];autosize=1;strokeColor=none;fillColor=none;" parent="1" vertex="1">
          <mxGeometry x="49" y="428" width="40" height="40" as="geometry" />
        </mxCell>
        <mxCell id="1-fifR0d1cTadevSJ9ES-28" value="&lt;div style=&quot;text-align: left;&quot;&gt;&lt;span data-darkreader-inline-bgcolor=&quot;&quot; style=&quot;background-color: initial; text-wrap: wrap; --darkreader-inline-bgcolor: initial;&quot;&gt;&lt;font style=&quot;--darkreader-inline-color: #bdb7ae;&quot; data-darkreader-inline-color=&quot;&quot; face=&quot;arial, sans-serif&quot; color=&quot;#c1bcb4&quot;&gt;&lt;span style=&quot;font-size: 24px;&quot;&gt;λ&lt;/span&gt;&lt;span style=&quot;font-size: 11px;&quot;&gt;2&lt;/span&gt;&lt;/font&gt;&lt;/span&gt;&lt;/div&gt;" style="text;html=1;align=center;verticalAlign=middle;resizable=0;points=[];autosize=1;strokeColor=none;fillColor=none;" parent="1" vertex="1">
          <mxGeometry x="460" y="328" width="40" height="40" as="geometry" />
        </mxCell>
        <mxCell id="1-fifR0d1cTadevSJ9ES-29" value="&lt;div style=&quot;text-align: left;&quot;&gt;&lt;span data-darkreader-inline-bgcolor=&quot;&quot; style=&quot;background-color: initial; text-wrap: wrap; --darkreader-inline-bgcolor: initial;&quot;&gt;&lt;font style=&quot;--darkreader-inline-color: #bdb7ae;&quot; data-darkreader-inline-color=&quot;&quot; face=&quot;arial, sans-serif&quot; color=&quot;#c1bcb4&quot;&gt;&lt;span style=&quot;font-size: 24px;&quot;&gt;λ&lt;/span&gt;&lt;span style=&quot;font-size: 11px;&quot;&gt;3&lt;/span&gt;&lt;/font&gt;&lt;/span&gt;&lt;/div&gt;" style="text;html=1;align=center;verticalAlign=middle;resizable=0;points=[];autosize=1;strokeColor=none;fillColor=none;" parent="1" vertex="1">
          <mxGeometry x="460" y="563" width="40" height="40" as="geometry" />
        </mxCell>
        <mxCell id="1-fifR0d1cTadevSJ9ES-30" value="&lt;div style=&quot;text-align: left;&quot;&gt;&lt;span data-darkreader-inline-bgcolor=&quot;&quot; style=&quot;background-color: initial; text-wrap: wrap; --darkreader-inline-bgcolor: initial;&quot;&gt;&lt;font style=&quot;--darkreader-inline-color: #bdb7ae;&quot; data-darkreader-inline-color=&quot;&quot; face=&quot;arial, sans-serif&quot; color=&quot;#c1bcb4&quot;&gt;&lt;span style=&quot;font-size: 24px;&quot;&gt;λ&lt;/span&gt;&lt;span style=&quot;font-size: 11px;&quot;&gt;4&lt;/span&gt;&lt;/font&gt;&lt;/span&gt;&lt;/div&gt;" style="text;html=1;align=center;verticalAlign=middle;resizable=0;points=[];autosize=1;strokeColor=none;fillColor=none;" parent="1" vertex="1">
          <mxGeometry x="645" y="428" width="40" height="40" as="geometry" />
        </mxCell>
        <mxCell id="1-fifR0d1cTadevSJ9ES-31" value="&lt;div style=&quot;text-align: left;&quot;&gt;&lt;span data-darkreader-inline-bgcolor=&quot;&quot; style=&quot;background-color: initial; text-wrap: wrap; --darkreader-inline-bgcolor: initial;&quot;&gt;&lt;font style=&quot;--darkreader-inline-color: #bdb7ae;&quot; data-darkreader-inline-color=&quot;&quot; face=&quot;arial, sans-serif&quot; color=&quot;#c1bcb4&quot;&gt;&lt;span style=&quot;font-size: 24px;&quot;&gt;λ&lt;/span&gt;&lt;span style=&quot;font-size: 11px;&quot;&gt;5&lt;/span&gt;&lt;/font&gt;&lt;/span&gt;&lt;/div&gt;" style="text;html=1;align=center;verticalAlign=middle;resizable=0;points=[];autosize=1;strokeColor=none;fillColor=none;" parent="1" vertex="1">
          <mxGeometry x="833" y="427" width="40" height="40" as="geometry" />
        </mxCell>
        <mxCell id="1-fifR0d1cTadevSJ9ES-32" value="&lt;div style=&quot;text-align: left;&quot;&gt;&lt;span data-darkreader-inline-bgcolor=&quot;&quot; style=&quot;background-color: initial; text-wrap: wrap; --darkreader-inline-bgcolor: initial;&quot;&gt;&lt;font style=&quot;--darkreader-inline-color: #bdb7ae;&quot; data-darkreader-inline-color=&quot;&quot; face=&quot;arial, sans-serif&quot; color=&quot;#c1bcb4&quot;&gt;&lt;span style=&quot;font-size: 24px;&quot;&gt;λ&lt;/span&gt;&lt;span style=&quot;font-size: 11px;&quot;&gt;6&lt;/span&gt;&lt;/font&gt;&lt;/span&gt;&lt;/div&gt;" style="text;html=1;align=center;verticalAlign=middle;resizable=0;points=[];autosize=1;strokeColor=none;fillColor=none;" parent="1" vertex="1">
          <mxGeometry x="1054" y="421" width="40" height="40" as="geometry" />
        </mxCell>
        <mxCell id="1-fifR0d1cTadevSJ9ES-33" value="&lt;div style=&quot;text-align: left;&quot;&gt;&lt;span data-darkreader-inline-bgcolor=&quot;&quot; style=&quot;background-color: initial; text-wrap: wrap; --darkreader-inline-bgcolor: initial;&quot;&gt;&lt;font style=&quot;--darkreader-inline-color: #bdb7ae;&quot; data-darkreader-inline-color=&quot;&quot; face=&quot;arial, sans-serif&quot; color=&quot;#c1bcb4&quot;&gt;&lt;span style=&quot;font-size: 24px;&quot;&gt;λ&lt;/span&gt;&lt;span style=&quot;font-size: 11px;&quot;&gt;7&lt;/span&gt;&lt;/font&gt;&lt;/span&gt;&lt;/div&gt;" style="text;html=1;align=center;verticalAlign=middle;resizable=0;points=[];autosize=1;strokeColor=none;fillColor=none;" parent="1" vertex="1">
          <mxGeometry x="1191" y="428" width="40" height="40" as="geometry" />
        </mxCell>
        <mxCell id="1-fifR0d1cTadevSJ9ES-34" value="&lt;div style=&quot;text-align: left;&quot;&gt;&lt;span data-darkreader-inline-bgcolor=&quot;&quot; style=&quot;background-color: initial; text-wrap: wrap; --darkreader-inline-bgcolor: initial;&quot;&gt;&lt;font style=&quot;--darkreader-inline-color: #bdb7ae;&quot; data-darkreader-inline-color=&quot;&quot; face=&quot;arial, sans-serif&quot; color=&quot;#c1bcb4&quot;&gt;&lt;span style=&quot;font-size: 24px;&quot;&gt;λ&lt;/span&gt;&lt;span style=&quot;font-size: 11px;&quot;&gt;8&lt;/span&gt;&lt;/font&gt;&lt;/span&gt;&lt;/div&gt;" style="text;html=1;align=center;verticalAlign=middle;resizable=0;points=[];autosize=1;strokeColor=none;fillColor=none;" parent="1" vertex="1">
          <mxGeometry x="1450" y="431" width="40" height="40" as="geometry" />
        </mxCell>
        <mxCell id="HhZ_n-8r5ht914i6lLAk-1" value="" style="group;rounded=0;" vertex="1" connectable="0" parent="1">
          <mxGeometry x="503" y="423.75" width="150" height="68.5" as="geometry" />
        </mxCell>
        <mxCell id="HhZ_n-8r5ht914i6lLAk-2" value="" style="group;rounded=0;" vertex="1" connectable="0" parent="HhZ_n-8r5ht914i6lLAk-1">
          <mxGeometry y="19.25" width="50" height="30" as="geometry" />
        </mxCell>
        <mxCell id="HhZ_n-8r5ht914i6lLAk-3" value="" style="endArrow=none;html=1;rounded=0;" edge="1" parent="HhZ_n-8r5ht914i6lLAk-2">
          <mxGeometry width="50" height="50" relative="1" as="geometry">
            <mxPoint as="sourcePoint" />
            <mxPoint x="50" as="targetPoint" />
          </mxGeometry>
        </mxCell>
        <mxCell id="HhZ_n-8r5ht914i6lLAk-4" value="" style="endArrow=none;html=1;rounded=0;" edge="1" parent="HhZ_n-8r5ht914i6lLAk-2">
          <mxGeometry width="50" height="50" relative="1" as="geometry">
            <mxPoint y="30" as="sourcePoint" />
            <mxPoint x="50" y="30" as="targetPoint" />
          </mxGeometry>
        </mxCell>
        <mxCell id="HhZ_n-8r5ht914i6lLAk-5" value="" style="endArrow=none;html=1;rounded=0;" edge="1" parent="HhZ_n-8r5ht914i6lLAk-2">
          <mxGeometry width="50" height="50" relative="1" as="geometry">
            <mxPoint x="50" as="sourcePoint" />
            <mxPoint x="50" y="30" as="targetPoint" />
          </mxGeometry>
        </mxCell>
        <mxCell id="HhZ_n-8r5ht914i6lLAk-6" value="" style="endArrow=none;html=1;rounded=0;" edge="1" parent="HhZ_n-8r5ht914i6lLAk-2">
          <mxGeometry width="50" height="50" relative="1" as="geometry">
            <mxPoint x="40" as="sourcePoint" />
            <mxPoint x="40" y="30" as="targetPoint" />
          </mxGeometry>
        </mxCell>
        <mxCell id="HhZ_n-8r5ht914i6lLAk-7" value="" style="endArrow=none;html=1;rounded=0;" edge="1" parent="HhZ_n-8r5ht914i6lLAk-2">
          <mxGeometry width="50" height="50" relative="1" as="geometry">
            <mxPoint x="30" as="sourcePoint" />
            <mxPoint x="30" y="30" as="targetPoint" />
          </mxGeometry>
        </mxCell>
        <mxCell id="HhZ_n-8r5ht914i6lLAk-8" value="" style="endArrow=none;html=1;rounded=0;" edge="1" parent="HhZ_n-8r5ht914i6lLAk-2">
          <mxGeometry width="50" height="50" relative="1" as="geometry">
            <mxPoint x="20" as="sourcePoint" />
            <mxPoint x="20" y="30" as="targetPoint" />
          </mxGeometry>
        </mxCell>
        <mxCell id="HhZ_n-8r5ht914i6lLAk-9" value="" style="ellipse;whiteSpace=wrap;html=1;aspect=fixed;rounded=0;" vertex="1" parent="HhZ_n-8r5ht914i6lLAk-1">
          <mxGeometry x="90" width="19" height="19" as="geometry" />
        </mxCell>
        <mxCell id="HhZ_n-8r5ht914i6lLAk-10" value="" style="endArrow=none;html=1;rounded=0;entryX=0;entryY=0.5;entryDx=0;entryDy=0;" edge="1" parent="HhZ_n-8r5ht914i6lLAk-1" target="HhZ_n-8r5ht914i6lLAk-9">
          <mxGeometry width="50" height="50" relative="1" as="geometry">
            <mxPoint x="50" y="35.25" as="sourcePoint" />
            <mxPoint x="234.5" y="-2.75" as="targetPoint" />
          </mxGeometry>
        </mxCell>
        <mxCell id="HhZ_n-8r5ht914i6lLAk-11" value="" style="endArrow=none;html=1;rounded=0;entryX=0;entryY=0.5;entryDx=0;entryDy=0;" edge="1" parent="HhZ_n-8r5ht914i6lLAk-1" target="HhZ_n-8r5ht914i6lLAk-13">
          <mxGeometry width="50" height="50" relative="1" as="geometry">
            <mxPoint x="50" y="34.25" as="sourcePoint" />
            <mxPoint x="235.8933982822016" y="93.64339828220147" as="targetPoint" />
          </mxGeometry>
        </mxCell>
        <mxCell id="HhZ_n-8r5ht914i6lLAk-12" value="" style="endArrow=none;html=1;rounded=0;entryX=1;entryY=0.5;entryDx=0;entryDy=0;" edge="1" parent="HhZ_n-8r5ht914i6lLAk-1" target="HhZ_n-8r5ht914i6lLAk-9">
          <mxGeometry width="50" height="50" relative="1" as="geometry">
            <mxPoint x="150" y="35.25" as="sourcePoint" />
            <mxPoint x="260.5" y="2.25" as="targetPoint" />
          </mxGeometry>
        </mxCell>
        <mxCell id="HhZ_n-8r5ht914i6lLAk-13" value="" style="ellipse;whiteSpace=wrap;html=1;aspect=fixed;rounded=0;" vertex="1" parent="HhZ_n-8r5ht914i6lLAk-1">
          <mxGeometry x="90" y="24.5" width="19" height="19" as="geometry" />
        </mxCell>
        <mxCell id="HhZ_n-8r5ht914i6lLAk-14" value="" style="ellipse;whiteSpace=wrap;html=1;aspect=fixed;rounded=0;" vertex="1" parent="HhZ_n-8r5ht914i6lLAk-1">
          <mxGeometry x="90" y="49.5" width="19" height="19" as="geometry" />
        </mxCell>
        <mxCell id="HhZ_n-8r5ht914i6lLAk-15" value="" style="endArrow=none;html=1;rounded=0;entryX=0;entryY=0.5;entryDx=0;entryDy=0;" edge="1" parent="HhZ_n-8r5ht914i6lLAk-1" target="HhZ_n-8r5ht914i6lLAk-14">
          <mxGeometry width="50" height="50" relative="1" as="geometry">
            <mxPoint x="50" y="35.25" as="sourcePoint" />
            <mxPoint x="250" y="15.25" as="targetPoint" />
          </mxGeometry>
        </mxCell>
        <mxCell id="HhZ_n-8r5ht914i6lLAk-16" value="" style="endArrow=none;html=1;rounded=0;exitX=1;exitY=0.5;exitDx=0;exitDy=0;" edge="1" parent="HhZ_n-8r5ht914i6lLAk-1" source="HhZ_n-8r5ht914i6lLAk-14">
          <mxGeometry width="50" height="50" relative="1" as="geometry">
            <mxPoint x="200" y="65.25" as="sourcePoint" />
            <mxPoint x="150" y="35.25" as="targetPoint" />
          </mxGeometry>
        </mxCell>
        <mxCell id="HhZ_n-8r5ht914i6lLAk-17" value="" style="endArrow=none;html=1;rounded=0;" edge="1" parent="HhZ_n-8r5ht914i6lLAk-1">
          <mxGeometry width="50" height="50" relative="1" as="geometry">
            <mxPoint x="110" y="35.25" as="sourcePoint" />
            <mxPoint x="150" y="35.25" as="targetPoint" />
          </mxGeometry>
        </mxCell>
        <mxCell id="YSWuQ-dhdkzdVncypj3w-154" value="" style="endArrow=none;dashed=1;html=1;dashPattern=1 3;strokeWidth=2;rounded=0;" parent="1" edge="1">
          <mxGeometry width="50" height="50" relative="1" as="geometry">
            <mxPoint x="370.3636363636364" y="580.4746153846154" as="sourcePoint" />
            <mxPoint x="370.3636363636364" y="549.7053846153847" as="targetPoint" />
          </mxGeometry>
        </mxCell>
        <mxCell id="hqgwPUTxqUbSW50iuOTj-140" value="" style="endArrow=none;html=1;rounded=0;curved=0;" parent="1" edge="1">
          <mxGeometry width="50" height="50" relative="1" as="geometry">
            <mxPoint x="409" y="530" as="sourcePoint" />
            <mxPoint x="439" y="564.21" as="targetPoint" />
            <Array as="points">
              <mxPoint x="440" y="530" />
            </Array>
          </mxGeometry>
        </mxCell>
        <mxCell id="hqgwPUTxqUbSW50iuOTj-141" value="" style="endArrow=none;html=1;exitX=1;exitY=0.5;exitDx=0;exitDy=0;rounded=0;curved=0;" parent="1" edge="1">
          <mxGeometry width="50" height="50" relative="1" as="geometry">
            <mxPoint x="409.04132231405185" y="604.1770947234584" as="sourcePoint" />
            <mxPoint x="439" y="564.21" as="targetPoint" />
            <Array as="points">
              <mxPoint x="439" y="604.21" />
            </Array>
          </mxGeometry>
        </mxCell>
        <mxCell id="HhZ_n-8r5ht914i6lLAk-76" value="" style="group;rounded=0;" vertex="1" connectable="0" parent="1">
          <mxGeometry x="330" y="582" width="80" height="43.25" as="geometry" />
        </mxCell>
        <mxCell id="HhZ_n-8r5ht914i6lLAk-77" value="" style="group;rounded=0;" vertex="1" connectable="0" parent="HhZ_n-8r5ht914i6lLAk-76">
          <mxGeometry y="12.154197080291972" width="26.666666666666664" height="18.94160583941606" as="geometry" />
        </mxCell>
        <mxCell id="HhZ_n-8r5ht914i6lLAk-78" value="" style="endArrow=none;html=1;rounded=0;" edge="1" parent="HhZ_n-8r5ht914i6lLAk-77">
          <mxGeometry width="50" height="50" relative="1" as="geometry">
            <mxPoint as="sourcePoint" />
            <mxPoint x="26.666666666666664" as="targetPoint" />
          </mxGeometry>
        </mxCell>
        <mxCell id="HhZ_n-8r5ht914i6lLAk-79" value="" style="endArrow=none;html=1;rounded=0;" edge="1" parent="HhZ_n-8r5ht914i6lLAk-77">
          <mxGeometry width="50" height="50" relative="1" as="geometry">
            <mxPoint y="18.94160583941606" as="sourcePoint" />
            <mxPoint x="26.666666666666664" y="18.94160583941606" as="targetPoint" />
          </mxGeometry>
        </mxCell>
        <mxCell id="HhZ_n-8r5ht914i6lLAk-80" value="" style="endArrow=none;html=1;rounded=0;" edge="1" parent="HhZ_n-8r5ht914i6lLAk-77">
          <mxGeometry width="50" height="50" relative="1" as="geometry">
            <mxPoint x="26.666666666666664" as="sourcePoint" />
            <mxPoint x="26.666666666666664" y="18.94160583941606" as="targetPoint" />
          </mxGeometry>
        </mxCell>
        <mxCell id="HhZ_n-8r5ht914i6lLAk-81" value="" style="endArrow=none;html=1;rounded=0;" edge="1" parent="HhZ_n-8r5ht914i6lLAk-77">
          <mxGeometry width="50" height="50" relative="1" as="geometry">
            <mxPoint x="21.33333333333333" as="sourcePoint" />
            <mxPoint x="21.33333333333333" y="18.94160583941606" as="targetPoint" />
          </mxGeometry>
        </mxCell>
        <mxCell id="HhZ_n-8r5ht914i6lLAk-82" value="" style="endArrow=none;html=1;rounded=0;" edge="1" parent="HhZ_n-8r5ht914i6lLAk-77">
          <mxGeometry width="50" height="50" relative="1" as="geometry">
            <mxPoint x="15.999999999999996" as="sourcePoint" />
            <mxPoint x="15.999999999999996" y="18.94160583941606" as="targetPoint" />
          </mxGeometry>
        </mxCell>
        <mxCell id="HhZ_n-8r5ht914i6lLAk-83" value="" style="endArrow=none;html=1;rounded=0;" edge="1" parent="HhZ_n-8r5ht914i6lLAk-77">
          <mxGeometry width="50" height="50" relative="1" as="geometry">
            <mxPoint x="10.666666666666664" as="sourcePoint" />
            <mxPoint x="10.666666666666664" y="18.94160583941606" as="targetPoint" />
          </mxGeometry>
        </mxCell>
        <mxCell id="HhZ_n-8r5ht914i6lLAk-84" value="" style="ellipse;whiteSpace=wrap;html=1;aspect=fixed;rounded=0;" vertex="1" parent="HhZ_n-8r5ht914i6lLAk-76">
          <mxGeometry x="48" width="10.133333333333333" height="10.133333333333333" as="geometry" />
        </mxCell>
        <mxCell id="HhZ_n-8r5ht914i6lLAk-85" value="" style="endArrow=none;html=1;rounded=0;entryX=0;entryY=0.5;entryDx=0;entryDy=0;" edge="1" parent="HhZ_n-8r5ht914i6lLAk-76" target="HhZ_n-8r5ht914i6lLAk-84">
          <mxGeometry width="50" height="50" relative="1" as="geometry">
            <mxPoint x="26.666666666666664" y="22.256386861313867" as="sourcePoint" />
            <mxPoint x="125.06666666666666" y="-1.7363138686131387" as="targetPoint" />
          </mxGeometry>
        </mxCell>
        <mxCell id="HhZ_n-8r5ht914i6lLAk-86" value="" style="endArrow=none;html=1;rounded=0;entryX=0;entryY=0.5;entryDx=0;entryDy=0;" edge="1" parent="HhZ_n-8r5ht914i6lLAk-76" target="HhZ_n-8r5ht914i6lLAk-88">
          <mxGeometry width="50" height="50" relative="1" as="geometry">
            <mxPoint x="26.666666666666664" y="21.625" as="sourcePoint" />
            <mxPoint x="125.80981241717419" y="59.1252113241637" as="targetPoint" />
          </mxGeometry>
        </mxCell>
        <mxCell id="HhZ_n-8r5ht914i6lLAk-87" value="" style="endArrow=none;html=1;rounded=0;entryX=1;entryY=0.5;entryDx=0;entryDy=0;" edge="1" parent="HhZ_n-8r5ht914i6lLAk-76" target="HhZ_n-8r5ht914i6lLAk-84">
          <mxGeometry width="50" height="50" relative="1" as="geometry">
            <mxPoint x="80" y="22.256386861313867" as="sourcePoint" />
            <mxPoint x="138.9333333333333" y="1.4206204379562044" as="targetPoint" />
          </mxGeometry>
        </mxCell>
        <mxCell id="HhZ_n-8r5ht914i6lLAk-88" value="" style="ellipse;whiteSpace=wrap;html=1;aspect=fixed;rounded=0;" vertex="1" parent="HhZ_n-8r5ht914i6lLAk-76">
          <mxGeometry x="48" y="15.46897810218978" width="10.133333333333333" height="10.133333333333333" as="geometry" />
        </mxCell>
        <mxCell id="HhZ_n-8r5ht914i6lLAk-89" value="" style="ellipse;whiteSpace=wrap;html=1;aspect=fixed;rounded=0;" vertex="1" parent="HhZ_n-8r5ht914i6lLAk-76">
          <mxGeometry x="48" y="31.2536496350365" width="10.133333333333333" height="10.133333333333333" as="geometry" />
        </mxCell>
        <mxCell id="HhZ_n-8r5ht914i6lLAk-90" value="" style="endArrow=none;html=1;rounded=0;entryX=0;entryY=0.5;entryDx=0;entryDy=0;" edge="1" parent="HhZ_n-8r5ht914i6lLAk-76" target="HhZ_n-8r5ht914i6lLAk-89">
          <mxGeometry width="50" height="50" relative="1" as="geometry">
            <mxPoint x="26.666666666666664" y="22.256386861313867" as="sourcePoint" />
            <mxPoint x="133.33333333333334" y="9.628649635036496" as="targetPoint" />
          </mxGeometry>
        </mxCell>
        <mxCell id="HhZ_n-8r5ht914i6lLAk-91" value="" style="endArrow=none;html=1;rounded=0;exitX=1;exitY=0.5;exitDx=0;exitDy=0;" edge="1" parent="HhZ_n-8r5ht914i6lLAk-76" source="HhZ_n-8r5ht914i6lLAk-89">
          <mxGeometry width="50" height="50" relative="1" as="geometry">
            <mxPoint x="106.66666666666666" y="41.19799270072993" as="sourcePoint" />
            <mxPoint x="80" y="22.256386861313867" as="targetPoint" />
          </mxGeometry>
        </mxCell>
        <mxCell id="HhZ_n-8r5ht914i6lLAk-92" value="" style="endArrow=none;html=1;rounded=0;" edge="1" parent="HhZ_n-8r5ht914i6lLAk-76">
          <mxGeometry width="50" height="50" relative="1" as="geometry">
            <mxPoint x="58.666666666666664" y="22.256386861313867" as="sourcePoint" />
            <mxPoint x="80" y="22.256386861313867" as="targetPoint" />
          </mxGeometry>
        </mxCell>
        <mxCell id="HhZ_n-8r5ht914i6lLAk-93" value="" style="group;rounded=0;" vertex="1" connectable="0" parent="1">
          <mxGeometry x="330" y="508" width="80" height="43.25" as="geometry" />
        </mxCell>
        <mxCell id="HhZ_n-8r5ht914i6lLAk-94" value="" style="group;rounded=0;" vertex="1" connectable="0" parent="HhZ_n-8r5ht914i6lLAk-93">
          <mxGeometry y="12.154197080291972" width="26.666666666666664" height="18.94160583941606" as="geometry" />
        </mxCell>
        <mxCell id="HhZ_n-8r5ht914i6lLAk-95" value="" style="endArrow=none;html=1;rounded=0;" edge="1" parent="HhZ_n-8r5ht914i6lLAk-94">
          <mxGeometry width="50" height="50" relative="1" as="geometry">
            <mxPoint as="sourcePoint" />
            <mxPoint x="26.666666666666664" as="targetPoint" />
          </mxGeometry>
        </mxCell>
        <mxCell id="HhZ_n-8r5ht914i6lLAk-96" value="" style="endArrow=none;html=1;rounded=0;" edge="1" parent="HhZ_n-8r5ht914i6lLAk-94">
          <mxGeometry width="50" height="50" relative="1" as="geometry">
            <mxPoint y="18.94160583941606" as="sourcePoint" />
            <mxPoint x="26.666666666666664" y="18.94160583941606" as="targetPoint" />
          </mxGeometry>
        </mxCell>
        <mxCell id="HhZ_n-8r5ht914i6lLAk-97" value="" style="endArrow=none;html=1;rounded=0;" edge="1" parent="HhZ_n-8r5ht914i6lLAk-94">
          <mxGeometry width="50" height="50" relative="1" as="geometry">
            <mxPoint x="26.666666666666664" as="sourcePoint" />
            <mxPoint x="26.666666666666664" y="18.94160583941606" as="targetPoint" />
          </mxGeometry>
        </mxCell>
        <mxCell id="HhZ_n-8r5ht914i6lLAk-98" value="" style="endArrow=none;html=1;rounded=0;" edge="1" parent="HhZ_n-8r5ht914i6lLAk-94">
          <mxGeometry width="50" height="50" relative="1" as="geometry">
            <mxPoint x="21.33333333333333" as="sourcePoint" />
            <mxPoint x="21.33333333333333" y="18.94160583941606" as="targetPoint" />
          </mxGeometry>
        </mxCell>
        <mxCell id="HhZ_n-8r5ht914i6lLAk-99" value="" style="endArrow=none;html=1;rounded=0;" edge="1" parent="HhZ_n-8r5ht914i6lLAk-94">
          <mxGeometry width="50" height="50" relative="1" as="geometry">
            <mxPoint x="15.999999999999996" as="sourcePoint" />
            <mxPoint x="15.999999999999996" y="18.94160583941606" as="targetPoint" />
          </mxGeometry>
        </mxCell>
        <mxCell id="HhZ_n-8r5ht914i6lLAk-100" value="" style="endArrow=none;html=1;rounded=0;" edge="1" parent="HhZ_n-8r5ht914i6lLAk-94">
          <mxGeometry width="50" height="50" relative="1" as="geometry">
            <mxPoint x="10.666666666666664" as="sourcePoint" />
            <mxPoint x="10.666666666666664" y="18.94160583941606" as="targetPoint" />
          </mxGeometry>
        </mxCell>
        <mxCell id="HhZ_n-8r5ht914i6lLAk-101" value="" style="ellipse;whiteSpace=wrap;html=1;aspect=fixed;rounded=0;" vertex="1" parent="HhZ_n-8r5ht914i6lLAk-93">
          <mxGeometry x="48" width="10.133333333333333" height="10.133333333333333" as="geometry" />
        </mxCell>
        <mxCell id="HhZ_n-8r5ht914i6lLAk-102" value="" style="endArrow=none;html=1;rounded=0;entryX=0;entryY=0.5;entryDx=0;entryDy=0;" edge="1" parent="HhZ_n-8r5ht914i6lLAk-93" target="HhZ_n-8r5ht914i6lLAk-101">
          <mxGeometry width="50" height="50" relative="1" as="geometry">
            <mxPoint x="26.666666666666664" y="22.256386861313867" as="sourcePoint" />
            <mxPoint x="125.06666666666666" y="-1.7363138686131387" as="targetPoint" />
          </mxGeometry>
        </mxCell>
        <mxCell id="HhZ_n-8r5ht914i6lLAk-103" value="" style="endArrow=none;html=1;rounded=0;entryX=0;entryY=0.5;entryDx=0;entryDy=0;" edge="1" parent="HhZ_n-8r5ht914i6lLAk-93" target="HhZ_n-8r5ht914i6lLAk-105">
          <mxGeometry width="50" height="50" relative="1" as="geometry">
            <mxPoint x="26.666666666666664" y="21.625" as="sourcePoint" />
            <mxPoint x="125.80981241717419" y="59.1252113241637" as="targetPoint" />
          </mxGeometry>
        </mxCell>
        <mxCell id="HhZ_n-8r5ht914i6lLAk-104" value="" style="endArrow=none;html=1;rounded=0;entryX=1;entryY=0.5;entryDx=0;entryDy=0;" edge="1" parent="HhZ_n-8r5ht914i6lLAk-93" target="HhZ_n-8r5ht914i6lLAk-101">
          <mxGeometry width="50" height="50" relative="1" as="geometry">
            <mxPoint x="80" y="22.256386861313867" as="sourcePoint" />
            <mxPoint x="138.9333333333333" y="1.4206204379562044" as="targetPoint" />
          </mxGeometry>
        </mxCell>
        <mxCell id="HhZ_n-8r5ht914i6lLAk-105" value="" style="ellipse;whiteSpace=wrap;html=1;aspect=fixed;rounded=0;" vertex="1" parent="HhZ_n-8r5ht914i6lLAk-93">
          <mxGeometry x="48" y="15.46897810218978" width="10.133333333333333" height="10.133333333333333" as="geometry" />
        </mxCell>
        <mxCell id="HhZ_n-8r5ht914i6lLAk-106" value="" style="ellipse;whiteSpace=wrap;html=1;aspect=fixed;rounded=0;" vertex="1" parent="HhZ_n-8r5ht914i6lLAk-93">
          <mxGeometry x="48" y="31.2536496350365" width="10.133333333333333" height="10.133333333333333" as="geometry" />
        </mxCell>
        <mxCell id="HhZ_n-8r5ht914i6lLAk-107" value="" style="endArrow=none;html=1;rounded=0;entryX=0;entryY=0.5;entryDx=0;entryDy=0;" edge="1" parent="HhZ_n-8r5ht914i6lLAk-93" target="HhZ_n-8r5ht914i6lLAk-106">
          <mxGeometry width="50" height="50" relative="1" as="geometry">
            <mxPoint x="26.666666666666664" y="22.256386861313867" as="sourcePoint" />
            <mxPoint x="133.33333333333334" y="9.628649635036496" as="targetPoint" />
          </mxGeometry>
        </mxCell>
        <mxCell id="HhZ_n-8r5ht914i6lLAk-108" value="" style="endArrow=none;html=1;rounded=0;exitX=1;exitY=0.5;exitDx=0;exitDy=0;" edge="1" parent="HhZ_n-8r5ht914i6lLAk-93" source="HhZ_n-8r5ht914i6lLAk-106">
          <mxGeometry width="50" height="50" relative="1" as="geometry">
            <mxPoint x="106.66666666666666" y="41.19799270072993" as="sourcePoint" />
            <mxPoint x="80" y="22.256386861313867" as="targetPoint" />
          </mxGeometry>
        </mxCell>
        <mxCell id="HhZ_n-8r5ht914i6lLAk-109" value="" style="endArrow=none;html=1;rounded=0;" edge="1" parent="HhZ_n-8r5ht914i6lLAk-93">
          <mxGeometry width="50" height="50" relative="1" as="geometry">
            <mxPoint x="58.666666666666664" y="22.256386861313867" as="sourcePoint" />
            <mxPoint x="80" y="22.256386861313867" as="targetPoint" />
          </mxGeometry>
        </mxCell>
        <mxCell id="HhZ_n-8r5ht914i6lLAk-110" value="" style="group" vertex="1" connectable="0" parent="1">
          <mxGeometry x="695" y="404" width="150" height="120" as="geometry" />
        </mxCell>
        <mxCell id="HhZ_n-8r5ht914i6lLAk-111" value="" style="endArrow=none;html=1;rounded=0;entryX=0;entryY=0.5;entryDx=0;entryDy=0;" edge="1" parent="HhZ_n-8r5ht914i6lLAk-110" target="HhZ_n-8r5ht914i6lLAk-128">
          <mxGeometry width="50" height="50" relative="1" as="geometry">
            <mxPoint x="49" y="65" as="sourcePoint" />
            <mxPoint x="94.00000000000705" y="46.5" as="targetPoint" />
          </mxGeometry>
        </mxCell>
        <mxCell id="HhZ_n-8r5ht914i6lLAk-112" value="" style="group;rounded=0;" vertex="1" connectable="0" parent="HhZ_n-8r5ht914i6lLAk-110">
          <mxGeometry y="49.25" width="50" height="30" as="geometry" />
        </mxCell>
        <mxCell id="HhZ_n-8r5ht914i6lLAk-113" value="" style="endArrow=none;html=1;rounded=0;" edge="1" parent="HhZ_n-8r5ht914i6lLAk-112">
          <mxGeometry width="50" height="50" relative="1" as="geometry">
            <mxPoint as="sourcePoint" />
            <mxPoint x="50" as="targetPoint" />
          </mxGeometry>
        </mxCell>
        <mxCell id="HhZ_n-8r5ht914i6lLAk-114" value="" style="endArrow=none;html=1;rounded=0;" edge="1" parent="HhZ_n-8r5ht914i6lLAk-112">
          <mxGeometry width="50" height="50" relative="1" as="geometry">
            <mxPoint y="30" as="sourcePoint" />
            <mxPoint x="50" y="30" as="targetPoint" />
          </mxGeometry>
        </mxCell>
        <mxCell id="HhZ_n-8r5ht914i6lLAk-115" value="" style="endArrow=none;html=1;rounded=0;" edge="1" parent="HhZ_n-8r5ht914i6lLAk-112">
          <mxGeometry width="50" height="50" relative="1" as="geometry">
            <mxPoint x="50" as="sourcePoint" />
            <mxPoint x="50" y="30" as="targetPoint" />
          </mxGeometry>
        </mxCell>
        <mxCell id="HhZ_n-8r5ht914i6lLAk-116" value="" style="endArrow=none;html=1;rounded=0;" edge="1" parent="HhZ_n-8r5ht914i6lLAk-112">
          <mxGeometry width="50" height="50" relative="1" as="geometry">
            <mxPoint x="40" as="sourcePoint" />
            <mxPoint x="40" y="30" as="targetPoint" />
          </mxGeometry>
        </mxCell>
        <mxCell id="HhZ_n-8r5ht914i6lLAk-117" value="" style="endArrow=none;html=1;rounded=0;" edge="1" parent="HhZ_n-8r5ht914i6lLAk-112">
          <mxGeometry width="50" height="50" relative="1" as="geometry">
            <mxPoint x="30" as="sourcePoint" />
            <mxPoint x="30" y="30" as="targetPoint" />
          </mxGeometry>
        </mxCell>
        <mxCell id="HhZ_n-8r5ht914i6lLAk-118" value="" style="endArrow=none;html=1;rounded=0;" edge="1" parent="HhZ_n-8r5ht914i6lLAk-112">
          <mxGeometry width="50" height="50" relative="1" as="geometry">
            <mxPoint x="20" as="sourcePoint" />
            <mxPoint x="20" y="30" as="targetPoint" />
          </mxGeometry>
        </mxCell>
        <mxCell id="HhZ_n-8r5ht914i6lLAk-119" value="" style="ellipse;whiteSpace=wrap;html=1;aspect=fixed;rounded=0;" vertex="1" parent="HhZ_n-8r5ht914i6lLAk-110">
          <mxGeometry x="90" width="19" height="19" as="geometry" />
        </mxCell>
        <mxCell id="HhZ_n-8r5ht914i6lLAk-120" value="" style="endArrow=none;html=1;rounded=0;entryX=0;entryY=0.5;entryDx=0;entryDy=0;" edge="1" parent="HhZ_n-8r5ht914i6lLAk-110" target="HhZ_n-8r5ht914i6lLAk-119">
          <mxGeometry width="50" height="50" relative="1" as="geometry">
            <mxPoint x="50" y="65.25" as="sourcePoint" />
            <mxPoint x="234.5" y="27.25" as="targetPoint" />
          </mxGeometry>
        </mxCell>
        <mxCell id="HhZ_n-8r5ht914i6lLAk-121" value="" style="endArrow=none;html=1;rounded=0;entryX=0;entryY=0.5;entryDx=0;entryDy=0;" edge="1" parent="HhZ_n-8r5ht914i6lLAk-110" target="HhZ_n-8r5ht914i6lLAk-123">
          <mxGeometry width="50" height="50" relative="1" as="geometry">
            <mxPoint x="50" y="64.25" as="sourcePoint" />
            <mxPoint x="235.8933982822016" y="123.64339828220147" as="targetPoint" />
          </mxGeometry>
        </mxCell>
        <mxCell id="HhZ_n-8r5ht914i6lLAk-122" value="" style="endArrow=none;html=1;rounded=0;entryX=1;entryY=0.5;entryDx=0;entryDy=0;" edge="1" parent="HhZ_n-8r5ht914i6lLAk-110" target="HhZ_n-8r5ht914i6lLAk-119">
          <mxGeometry width="50" height="50" relative="1" as="geometry">
            <mxPoint x="150" y="65.25" as="sourcePoint" />
            <mxPoint x="260.5" y="32.25" as="targetPoint" />
          </mxGeometry>
        </mxCell>
        <mxCell id="HhZ_n-8r5ht914i6lLAk-123" value="" style="ellipse;whiteSpace=wrap;html=1;aspect=fixed;rounded=0;" vertex="1" parent="HhZ_n-8r5ht914i6lLAk-110">
          <mxGeometry x="90" y="71" width="19" height="19" as="geometry" />
        </mxCell>
        <mxCell id="HhZ_n-8r5ht914i6lLAk-124" value="" style="ellipse;whiteSpace=wrap;html=1;aspect=fixed;rounded=0;" vertex="1" parent="HhZ_n-8r5ht914i6lLAk-110">
          <mxGeometry x="90" y="101" width="19" height="19" as="geometry" />
        </mxCell>
        <mxCell id="HhZ_n-8r5ht914i6lLAk-125" value="" style="endArrow=none;html=1;rounded=0;entryX=0;entryY=0.5;entryDx=0;entryDy=0;" edge="1" parent="HhZ_n-8r5ht914i6lLAk-110" target="HhZ_n-8r5ht914i6lLAk-124">
          <mxGeometry width="50" height="50" relative="1" as="geometry">
            <mxPoint x="50" y="65.25" as="sourcePoint" />
            <mxPoint x="250" y="45.25" as="targetPoint" />
          </mxGeometry>
        </mxCell>
        <mxCell id="HhZ_n-8r5ht914i6lLAk-126" value="" style="endArrow=none;html=1;rounded=0;exitX=1;exitY=0.5;exitDx=0;exitDy=0;" edge="1" parent="HhZ_n-8r5ht914i6lLAk-110" source="HhZ_n-8r5ht914i6lLAk-124">
          <mxGeometry width="50" height="50" relative="1" as="geometry">
            <mxPoint x="200" y="95.25" as="sourcePoint" />
            <mxPoint x="150" y="65.25" as="targetPoint" />
          </mxGeometry>
        </mxCell>
        <mxCell id="HhZ_n-8r5ht914i6lLAk-127" value="" style="endArrow=none;html=1;rounded=0;exitX=1;exitY=0.5;exitDx=0;exitDy=0;" edge="1" parent="HhZ_n-8r5ht914i6lLAk-110" source="HhZ_n-8r5ht914i6lLAk-128">
          <mxGeometry width="50" height="50" relative="1" as="geometry">
            <mxPoint x="110" y="65.25" as="sourcePoint" />
            <mxPoint x="150" y="65.25" as="targetPoint" />
          </mxGeometry>
        </mxCell>
        <mxCell id="HhZ_n-8r5ht914i6lLAk-128" value="" style="ellipse;whiteSpace=wrap;html=1;aspect=fixed;rounded=0;" vertex="1" parent="HhZ_n-8r5ht914i6lLAk-110">
          <mxGeometry x="90" y="31" width="19" height="19" as="geometry" />
        </mxCell>
        <mxCell id="HhZ_n-8r5ht914i6lLAk-129" value="" style="endArrow=none;html=1;rounded=0;exitX=1;exitY=0.5;exitDx=0;exitDy=0;" edge="1" parent="HhZ_n-8r5ht914i6lLAk-110">
          <mxGeometry width="50" height="50" relative="1" as="geometry">
            <mxPoint x="109.99999999999307" y="79.50000000000011" as="sourcePoint" />
            <mxPoint x="146" y="65" as="targetPoint" />
          </mxGeometry>
        </mxCell>
        <mxCell id="HhZ_n-8r5ht914i6lLAk-131" value="" style="endArrow=none;dashed=1;html=1;dashPattern=1 3;strokeWidth=2;rounded=0;" edge="1" parent="1">
          <mxGeometry width="50" height="50" relative="1" as="geometry">
            <mxPoint x="1009.1336363636364" y="444.00461538461536" as="sourcePoint" />
            <mxPoint x="1009.1336363636364" y="413.23538461538465" as="targetPoint" />
          </mxGeometry>
        </mxCell>
        <mxCell id="HhZ_n-8r5ht914i6lLAk-73" value="" style="endArrow=none;html=1;rounded=0;entryX=0;entryY=0.5;entryDx=0;entryDy=0;" edge="1" parent="1" target="HhZ_n-8r5ht914i6lLAk-70">
          <mxGeometry width="50" height="50" relative="1" as="geometry">
            <mxPoint x="959" y="461.25" as="sourcePoint" />
            <mxPoint x="1004.000000000007" y="442.75" as="targetPoint" />
          </mxGeometry>
        </mxCell>
        <mxCell id="HhZ_n-8r5ht914i6lLAk-54" value="" style="group;rounded=0;" vertex="1" connectable="0" parent="1">
          <mxGeometry x="910" y="445.5" width="50" height="30" as="geometry" />
        </mxCell>
        <mxCell id="HhZ_n-8r5ht914i6lLAk-55" value="" style="endArrow=none;html=1;rounded=0;" edge="1" parent="HhZ_n-8r5ht914i6lLAk-54">
          <mxGeometry width="50" height="50" relative="1" as="geometry">
            <mxPoint as="sourcePoint" />
            <mxPoint x="50" as="targetPoint" />
          </mxGeometry>
        </mxCell>
        <mxCell id="HhZ_n-8r5ht914i6lLAk-56" value="" style="endArrow=none;html=1;rounded=0;" edge="1" parent="HhZ_n-8r5ht914i6lLAk-54">
          <mxGeometry width="50" height="50" relative="1" as="geometry">
            <mxPoint y="30" as="sourcePoint" />
            <mxPoint x="50" y="30" as="targetPoint" />
          </mxGeometry>
        </mxCell>
        <mxCell id="HhZ_n-8r5ht914i6lLAk-57" value="" style="endArrow=none;html=1;rounded=0;" edge="1" parent="HhZ_n-8r5ht914i6lLAk-54">
          <mxGeometry width="50" height="50" relative="1" as="geometry">
            <mxPoint x="50" as="sourcePoint" />
            <mxPoint x="50" y="30" as="targetPoint" />
          </mxGeometry>
        </mxCell>
        <mxCell id="HhZ_n-8r5ht914i6lLAk-58" value="" style="endArrow=none;html=1;rounded=0;" edge="1" parent="HhZ_n-8r5ht914i6lLAk-54">
          <mxGeometry width="50" height="50" relative="1" as="geometry">
            <mxPoint x="40" as="sourcePoint" />
            <mxPoint x="40" y="30" as="targetPoint" />
          </mxGeometry>
        </mxCell>
        <mxCell id="HhZ_n-8r5ht914i6lLAk-59" value="" style="endArrow=none;html=1;rounded=0;" edge="1" parent="HhZ_n-8r5ht914i6lLAk-54">
          <mxGeometry width="50" height="50" relative="1" as="geometry">
            <mxPoint x="30" as="sourcePoint" />
            <mxPoint x="30" y="30" as="targetPoint" />
          </mxGeometry>
        </mxCell>
        <mxCell id="HhZ_n-8r5ht914i6lLAk-60" value="" style="endArrow=none;html=1;rounded=0;" edge="1" parent="HhZ_n-8r5ht914i6lLAk-54">
          <mxGeometry width="50" height="50" relative="1" as="geometry">
            <mxPoint x="20" as="sourcePoint" />
            <mxPoint x="20" y="30" as="targetPoint" />
          </mxGeometry>
        </mxCell>
        <mxCell id="HhZ_n-8r5ht914i6lLAk-61" value="" style="ellipse;whiteSpace=wrap;html=1;aspect=fixed;rounded=0;" vertex="1" parent="1">
          <mxGeometry x="1000" y="359" width="19" height="19" as="geometry" />
        </mxCell>
        <mxCell id="HhZ_n-8r5ht914i6lLAk-62" value="" style="endArrow=none;html=1;rounded=0;entryX=0;entryY=0.5;entryDx=0;entryDy=0;" edge="1" parent="1" target="HhZ_n-8r5ht914i6lLAk-61">
          <mxGeometry width="50" height="50" relative="1" as="geometry">
            <mxPoint x="960" y="461.5" as="sourcePoint" />
            <mxPoint x="1144.5" y="423.5" as="targetPoint" />
          </mxGeometry>
        </mxCell>
        <mxCell id="HhZ_n-8r5ht914i6lLAk-63" value="" style="endArrow=none;html=1;rounded=0;entryX=0;entryY=0.5;entryDx=0;entryDy=0;" edge="1" parent="1" target="HhZ_n-8r5ht914i6lLAk-65">
          <mxGeometry width="50" height="50" relative="1" as="geometry">
            <mxPoint x="960" y="460.5" as="sourcePoint" />
            <mxPoint x="1145.8933982822016" y="519.8933982822015" as="targetPoint" />
          </mxGeometry>
        </mxCell>
        <mxCell id="HhZ_n-8r5ht914i6lLAk-64" value="" style="endArrow=none;html=1;rounded=0;entryX=1;entryY=0.5;entryDx=0;entryDy=0;" edge="1" parent="1" target="HhZ_n-8r5ht914i6lLAk-61">
          <mxGeometry width="50" height="50" relative="1" as="geometry">
            <mxPoint x="1060" y="461.5" as="sourcePoint" />
            <mxPoint x="1170.5" y="428.5" as="targetPoint" />
          </mxGeometry>
        </mxCell>
        <mxCell id="HhZ_n-8r5ht914i6lLAk-65" value="" style="ellipse;whiteSpace=wrap;html=1;aspect=fixed;rounded=0;" vertex="1" parent="1">
          <mxGeometry x="1000" y="513" width="19" height="19" as="geometry" />
        </mxCell>
        <mxCell id="HhZ_n-8r5ht914i6lLAk-66" value="" style="ellipse;whiteSpace=wrap;html=1;aspect=fixed;rounded=0;" vertex="1" parent="1">
          <mxGeometry x="1000" y="540" width="19" height="19" as="geometry" />
        </mxCell>
        <mxCell id="HhZ_n-8r5ht914i6lLAk-67" value="" style="endArrow=none;html=1;rounded=0;entryX=0;entryY=0.5;entryDx=0;entryDy=0;" edge="1" parent="1" target="HhZ_n-8r5ht914i6lLAk-66">
          <mxGeometry width="50" height="50" relative="1" as="geometry">
            <mxPoint x="960" y="461.5" as="sourcePoint" />
            <mxPoint x="1160" y="441.5" as="targetPoint" />
          </mxGeometry>
        </mxCell>
        <mxCell id="HhZ_n-8r5ht914i6lLAk-68" value="" style="endArrow=none;html=1;rounded=0;exitX=1;exitY=0.5;exitDx=0;exitDy=0;" edge="1" parent="1" source="HhZ_n-8r5ht914i6lLAk-66">
          <mxGeometry width="50" height="50" relative="1" as="geometry">
            <mxPoint x="1110" y="491.5" as="sourcePoint" />
            <mxPoint x="1060" y="461.5" as="targetPoint" />
          </mxGeometry>
        </mxCell>
        <mxCell id="HhZ_n-8r5ht914i6lLAk-69" value="" style="endArrow=none;html=1;rounded=0;exitX=1;exitY=0.5;exitDx=0;exitDy=0;" edge="1" parent="1" source="HhZ_n-8r5ht914i6lLAk-70">
          <mxGeometry width="50" height="50" relative="1" as="geometry">
            <mxPoint x="1020" y="461.5" as="sourcePoint" />
            <mxPoint x="1060" y="461.5" as="targetPoint" />
          </mxGeometry>
        </mxCell>
        <mxCell id="HhZ_n-8r5ht914i6lLAk-70" value="" style="ellipse;whiteSpace=wrap;html=1;aspect=fixed;rounded=0;" vertex="1" parent="1">
          <mxGeometry x="1000" y="386" width="19" height="19" as="geometry" />
        </mxCell>
        <mxCell id="HhZ_n-8r5ht914i6lLAk-71" value="" style="endArrow=none;html=1;rounded=0;exitX=1;exitY=0.5;exitDx=0;exitDy=0;movable=1;resizable=1;rotatable=1;deletable=1;editable=1;locked=0;connectable=1;" edge="1" parent="1" source="HhZ_n-8r5ht914i6lLAk-65" target="1-fifR0d1cTadevSJ9ES-32">
          <mxGeometry width="50" height="50" relative="1" as="geometry">
            <mxPoint x="1019.9999999999931" y="475.7500000000001" as="sourcePoint" />
            <mxPoint x="1056" y="461.25" as="targetPoint" />
          </mxGeometry>
        </mxCell>
        <mxCell id="HhZ_n-8r5ht914i6lLAk-132" value="" style="endArrow=none;dashed=1;html=1;dashPattern=1 3;strokeWidth=2;rounded=0;" edge="1" parent="1">
          <mxGeometry width="50" height="50" relative="1" as="geometry">
            <mxPoint x="1009.1336363636364" y="495.76461538461535" as="sourcePoint" />
            <mxPoint x="1009.1336363636364" y="464.99538461538464" as="targetPoint" />
          </mxGeometry>
        </mxCell>
      </root>
    </mxGraphModel>
  </diagram>
</mxfile>
